<svg xmlns="http://www.w3.org/2000/svg" viewBox="0 0 196.98 48.4"><defs><style>.cls-1{fill:#fff;}</style></defs><title>white</title><g id="Layer_2" data-name="Layer 2"><g id="Layer_1-2" data-name="Layer 1"><path class="cls-1" d="M62.92,28.41a2.94,2.94,0,0,0,3.23,2.68c1.57,0,2.33-.82,2.33-1.75s-.54-1.44-1.9-1.72l-2.33-.54c-3.4-.75-4.94-2.79-4.94-5.27,0-3.15,2.79-5.76,6.59-5.76,5,0,6.7,3.18,6.91,5.08l-4,.9a2.67,2.67,0,0,0-2.9-2.36,2,2,0,0,0-2.25,1.75c0,.86.64,1.4,1.61,1.58l2.51.53c3.47.72,5.23,2.83,5.23,5.41,0,2.87-2.23,5.81-6.85,5.81-5.3,0-7.13-3.44-7.34-5.45Z"/><path class="cls-1" d="M75.43,41V16.58h4.62v2.15a6.17,6.17,0,0,1,5.41-2.54c5.16,0,8.13,3.94,8.13,9.17s-3.33,9.28-8.31,9.28a6.2,6.2,0,0,1-5.09-2.15V41Zm9.1-20.56c-2.44,0-4.41,1.83-4.41,4.95s2,5,4.41,5,4.37-1.83,4.37-5S87,20.45,84.53,20.45Z"/><path class="cls-1" d="M95.92,34.21V8.27h4.76V34.21Z"/><path class="cls-1" d="M120.14,29.16a8,8,0,0,1-8,5.59c-4.83,0-9.1-3.48-9.1-9.43,0-5.62,4.16-9.27,8.67-9.27,5.45,0,8.71,3.47,8.71,9.13,0,.68-.08,1.4-.08,1.47h-12.6a4.28,4.28,0,0,0,4.44,4,3.89,3.89,0,0,0,4-2.68Zm-4.45-5.77c-.07-1.75-1.21-3.47-3.94-3.47a3.81,3.81,0,0,0-3.94,3.47Z"/><path class="cls-1" d="M127.48,34.21h-4.76V16.58h4.62v2.19a5.84,5.84,0,0,1,5.08-2.65c4.37,0,6.38,3.11,6.38,7V34.21H134V23.93c0-2-1-3.51-3.26-3.51-2.08,0-3.3,1.61-3.3,3.65Z"/><path class="cls-1" d="M159,31c0,1.18.07,2.47.14,3.19H154.6a12.36,12.36,0,0,1-.18-2,5.54,5.54,0,0,1-4.94,2.47c-5,0-8.6-3.94-8.6-9.28,0-5.16,3.47-9.21,8.45-9.21,3,0,4.48,1.26,5,2.19V8.27H159Zm-9-.64c2.44,0,4.33-1.87,4.33-5.06s-1.89-4.9-4.33-4.9-4.37,1.79-4.37,4.94S147.54,30.38,150.05,30.38Z"/><path class="cls-1" d="M178.53,29.16a7.94,7.94,0,0,1-8,5.59c-4.84,0-9.1-3.48-9.1-9.43,0-5.62,4.15-9.27,8.67-9.27,5.44,0,8.7,3.47,8.7,9.13,0,.68-.07,1.4-.07,1.47H166.1a4.29,4.29,0,0,0,4.44,4,3.91,3.91,0,0,0,4-2.68Zm-4.44-5.77c-.07-1.75-1.22-3.47-3.94-3.47a3.81,3.81,0,0,0-3.94,3.47Z"/><path class="cls-1" d="M185,25.36l-6.27-8.78h5.66c.61,1,2.9,4.27,3.51,5.23l3.48-5.23h5.41l-6.17,8.64,6.38,9h-5.59L187.7,28.8c-.64,1-3,4.44-3.61,5.41h-5.38Z"/><path class="cls-1" d="M40.29,9.53,25.41.94a7,7,0,0,0-7,0L3.51,9.53A7,7,0,0,0,0,15.61V32.79a7,7,0,0,0,3.51,6.08l14.88,8.59a7,7,0,0,0,7,0l14.88-8.59a7,7,0,0,0,3.51-6.08V15.61A7,7,0,0,0,40.29,9.53ZM31.41,20.38c0,.89-.62.72-1,.54l-.26-.14h0l-3.52-2-3.76-2.15a2.62,2.62,0,0,0-2,0l-3,1.73s-.64.41,0,.77h0l4.08,2.33h0l4.75,2.71,3.54,2a2.46,2.46,0,0,1,1.22,2v2.73a2.53,2.53,0,0,1-1.05,2l-3.71,2.12L23.26,37a2.56,2.56,0,0,1-2.7,0v0l-3.42-1.95L13.44,33a2.54,2.54,0,0,1-1-2.06V27.77c0-.33.17-.76.8-.4l4,2.26h0l3.57,2a2.65,2.65,0,0,0,2.37,0l.14-.09.22-.13v0l2.42-1.39A.28.28,0,0,1,26,30c.5-.28.21-.6.07-.72L21.9,26.91h0L17.14,24.2l-3.55-2h0a2.48,2.48,0,0,1-1.21-1.78v-3a2.53,2.53,0,0,1,1-1.92l3.73-2.13,3.41-1.94h0l.12-.08a2.67,2.67,0,0,1,2.58.08l3.4,1.94,3.68,2.1a2.53,2.53,0,0,1,1.08,2.1Z"/></g></g></svg>